<mxfile host="app.diagrams.net" modified="2024-01-24T16:26:00.567Z" agent="Mozilla/5.0 (Macintosh; Intel Mac OS X 10_15_7) AppleWebKit/537.36 (KHTML, like Gecko) Chrome/120.0.0.0 Safari/537.36" etag="qzBq0xdEyg-jeUhs7Y6m" version="23.0.1" type="device">
  <diagram name="Trang-1" id="Hb33xli_GPp8fjIGqGy5">
    <mxGraphModel dx="1314" dy="2001" grid="1" gridSize="10" guides="1" tooltips="1" connect="1" arrows="1" fold="1" page="1" pageScale="1" pageWidth="827" pageHeight="1169" math="0" shadow="0">
      <root>
        <mxCell id="0" />
        <mxCell id="1" parent="0" />
        <mxCell id="JHJsZCP_RoubWGv-RQ8A-7" value="" style="rounded=0;whiteSpace=wrap;html=1;strokeWidth=1;" parent="1" vertex="1">
          <mxGeometry x="40" y="-1140" width="1060" height="850" as="geometry" />
        </mxCell>
        <mxCell id="JHJsZCP_RoubWGv-RQ8A-1" value="Admin/Employee" style="shape=umlActor;verticalLabelPosition=bottom;verticalAlign=top;html=1;outlineConnect=0;" parent="1" vertex="1">
          <mxGeometry x="100" y="-795" width="30" height="60" as="geometry" />
        </mxCell>
        <mxCell id="JHJsZCP_RoubWGv-RQ8A-2" value="View list of prescription" style="ellipse;whiteSpace=wrap;html=1;" parent="1" vertex="1">
          <mxGeometry x="250" y="-820" width="157" height="90" as="geometry" />
        </mxCell>
        <mxCell id="JHJsZCP_RoubWGv-RQ8A-6" value="Manage prescription information" style="shape=umlFrame;whiteSpace=wrap;html=1;pointerEvents=0;width=180;height=40;" parent="1" vertex="1">
          <mxGeometry x="210" y="-1110" width="860" height="790" as="geometry" />
        </mxCell>
        <mxCell id="JHJsZCP_RoubWGv-RQ8A-8" value="Log in" style="ellipse;whiteSpace=wrap;html=1;" parent="1" vertex="1">
          <mxGeometry x="610" y="-1050" width="120" height="80" as="geometry" />
        </mxCell>
        <mxCell id="JHJsZCP_RoubWGv-RQ8A-9" value="Add new prescription" style="ellipse;whiteSpace=wrap;html=1;" parent="1" vertex="1">
          <mxGeometry x="610" y="-900" width="120" height="80" as="geometry" />
        </mxCell>
        <mxCell id="JHJsZCP_RoubWGv-RQ8A-10" value="Update prescription&amp;nbsp;" style="ellipse;whiteSpace=wrap;html=1;" parent="1" vertex="1">
          <mxGeometry x="610" y="-760" width="120" height="80" as="geometry" />
        </mxCell>
        <mxCell id="JHJsZCP_RoubWGv-RQ8A-12" value="&lt;font style=&quot;font-size: 13px;&quot;&gt;&amp;lt;&amp;lt;include&amp;gt;&amp;gt;&lt;/font&gt;" style="html=1;verticalAlign=bottom;endArrow=open;dashed=1;endSize=8;curved=0;rounded=0;strokeWidth=1;" parent="1" source="JHJsZCP_RoubWGv-RQ8A-2" target="JHJsZCP_RoubWGv-RQ8A-8" edge="1">
          <mxGeometry x="-0.2341" y="29" relative="1" as="geometry">
            <mxPoint x="540" y="-816" as="sourcePoint" />
            <mxPoint x="460" y="-816" as="targetPoint" />
            <mxPoint as="offset" />
          </mxGeometry>
        </mxCell>
        <mxCell id="JHJsZCP_RoubWGv-RQ8A-16" value="&lt;font style=&quot;font-size: 15px;&quot;&gt;&amp;lt;&amp;lt;extend&amp;gt;&amp;gt;&lt;/font&gt;" style="html=1;verticalAlign=bottom;endArrow=open;dashed=1;endSize=8;curved=0;rounded=0;strokeWidth=1;" parent="1" source="JHJsZCP_RoubWGv-RQ8A-10" target="JHJsZCP_RoubWGv-RQ8A-2" edge="1">
          <mxGeometry x="0.0148" y="-11" relative="1" as="geometry">
            <mxPoint x="440" y="-782.29" as="sourcePoint" />
            <mxPoint x="552.01" y="-748.03" as="targetPoint" />
            <mxPoint as="offset" />
          </mxGeometry>
        </mxCell>
        <mxCell id="JHJsZCP_RoubWGv-RQ8A-18" value="" style="endArrow=none;html=1;rounded=0;entryX=0;entryY=0.5;entryDx=0;entryDy=0;exitX=0.5;exitY=0.5;exitDx=0;exitDy=0;exitPerimeter=0;" parent="1" edge="1" target="JHJsZCP_RoubWGv-RQ8A-2" source="JHJsZCP_RoubWGv-RQ8A-1">
          <mxGeometry width="50" height="50" relative="1" as="geometry">
            <mxPoint x="150" y="-775" as="sourcePoint" />
            <mxPoint x="310" y="-860" as="targetPoint" />
            <Array as="points" />
          </mxGeometry>
        </mxCell>
        <mxCell id="amQCcpCkS8rDXFo1Lir8-4" value="" style="endArrow=block;html=1;rounded=0;endFill=0;exitX=0.025;exitY=0.6;exitDx=0;exitDy=0;entryX=1;entryY=0.5;entryDx=0;entryDy=0;exitPerimeter=0;" parent="1" source="PGMovxBzatp9qkB7L8K9-3" target="JHJsZCP_RoubWGv-RQ8A-8" edge="1">
          <mxGeometry width="50" height="50" relative="1" as="geometry">
            <mxPoint x="670" y="-920" as="sourcePoint" />
            <mxPoint x="559.996441873664" y="-905.2500975692653" as="targetPoint" />
            <Array as="points" />
          </mxGeometry>
        </mxCell>
        <mxCell id="PGMovxBzatp9qkB7L8K9-3" value="Login by Facebook" style="ellipse;whiteSpace=wrap;html=1;" vertex="1" parent="1">
          <mxGeometry x="840" y="-1080" width="120" height="80" as="geometry" />
        </mxCell>
        <mxCell id="PGMovxBzatp9qkB7L8K9-4" value="&lt;font style=&quot;font-size: 14px;&quot;&gt;&amp;lt;&amp;lt;extend&amp;gt;&amp;gt;&lt;/font&gt;" style="html=1;verticalAlign=bottom;endArrow=open;dashed=1;endSize=8;curved=0;rounded=0;exitX=0;exitY=0.588;exitDx=0;exitDy=0;exitPerimeter=0;entryX=0.975;entryY=0.4;entryDx=0;entryDy=0;entryPerimeter=0;strokeWidth=1;" edge="1" parent="1" source="JHJsZCP_RoubWGv-RQ8A-9" target="JHJsZCP_RoubWGv-RQ8A-2">
          <mxGeometry x="0.0148" y="-11" relative="1" as="geometry">
            <mxPoint x="590" y="-720" as="sourcePoint" />
            <mxPoint x="403" y="-778" as="targetPoint" />
            <mxPoint as="offset" />
          </mxGeometry>
        </mxCell>
        <mxCell id="PGMovxBzatp9qkB7L8K9-6" value="Delete prescription&amp;nbsp;" style="ellipse;whiteSpace=wrap;html=1;" vertex="1" parent="1">
          <mxGeometry x="620" y="-624" width="120" height="80" as="geometry" />
        </mxCell>
        <mxCell id="PGMovxBzatp9qkB7L8K9-7" value="&lt;font style=&quot;font-size: 14px;&quot;&gt;&amp;lt;&amp;lt;extend&amp;gt;&amp;gt;&lt;/font&gt;" style="html=1;verticalAlign=bottom;endArrow=open;dashed=1;endSize=8;curved=0;rounded=0;exitX=0;exitY=0.5;exitDx=0;exitDy=0;entryX=1;entryY=1;entryDx=0;entryDy=0;strokeWidth=1;" edge="1" parent="1" source="PGMovxBzatp9qkB7L8K9-6" target="JHJsZCP_RoubWGv-RQ8A-2">
          <mxGeometry x="0.0567" y="-26" relative="1" as="geometry">
            <mxPoint x="507" y="-672" as="sourcePoint" />
            <mxPoint x="320" y="-730" as="targetPoint" />
            <mxPoint y="-1" as="offset" />
          </mxGeometry>
        </mxCell>
        <mxCell id="PGMovxBzatp9qkB7L8K9-8" value="Confirm delete" style="ellipse;whiteSpace=wrap;html=1;" vertex="1" parent="1">
          <mxGeometry x="860" y="-590" width="120" height="80" as="geometry" />
        </mxCell>
        <mxCell id="PGMovxBzatp9qkB7L8K9-9" value="&lt;font style=&quot;font-size: 13px;&quot;&gt;&amp;lt;&amp;lt;include&amp;gt;&amp;gt;&lt;/font&gt;" style="html=1;verticalAlign=bottom;endArrow=open;dashed=1;endSize=8;curved=0;rounded=0;entryX=0;entryY=0.5;entryDx=0;entryDy=0;exitX=1;exitY=0.6;exitDx=0;exitDy=0;exitPerimeter=0;" edge="1" parent="1" source="PGMovxBzatp9qkB7L8K9-6" target="PGMovxBzatp9qkB7L8K9-8">
          <mxGeometry x="-0.2359" y="29" relative="1" as="geometry">
            <mxPoint x="534" y="-612" as="sourcePoint" />
            <mxPoint x="620" y="-680" as="targetPoint" />
            <mxPoint as="offset" />
          </mxGeometry>
        </mxCell>
        <mxCell id="PGMovxBzatp9qkB7L8K9-10" value="Filter prescription" style="ellipse;whiteSpace=wrap;html=1;" vertex="1" parent="1">
          <mxGeometry x="460" y="-550" width="120" height="80" as="geometry" />
        </mxCell>
        <mxCell id="PGMovxBzatp9qkB7L8K9-11" value="&lt;font style=&quot;font-size: 14px;&quot;&gt;&amp;lt;&amp;lt;extend&amp;gt;&amp;gt;&lt;/font&gt;" style="html=1;verticalAlign=bottom;endArrow=open;dashed=1;endSize=8;curved=0;rounded=0;exitX=0.5;exitY=0;exitDx=0;exitDy=0;entryX=0.586;entryY=1.017;entryDx=0;entryDy=0;strokeWidth=1;entryPerimeter=0;" edge="1" parent="1" source="PGMovxBzatp9qkB7L8K9-10" target="JHJsZCP_RoubWGv-RQ8A-2">
          <mxGeometry x="0.2472" y="38" relative="1" as="geometry">
            <mxPoint x="566" y="-571" as="sourcePoint" />
            <mxPoint x="330" y="-730" as="targetPoint" />
            <mxPoint x="1" as="offset" />
          </mxGeometry>
        </mxCell>
        <mxCell id="PGMovxBzatp9qkB7L8K9-12" value="&lt;font style=&quot;font-size: 13px;&quot;&gt;Filter by symptom&lt;/font&gt;" style="ellipse;whiteSpace=wrap;html=1;" vertex="1" parent="1">
          <mxGeometry x="250" y="-440" width="120" height="80" as="geometry" />
        </mxCell>
        <mxCell id="PGMovxBzatp9qkB7L8K9-13" value="&lt;font style=&quot;font-size: 13px;&quot;&gt;Filter by text&lt;/font&gt;" style="ellipse;whiteSpace=wrap;html=1;" vertex="1" parent="1">
          <mxGeometry x="414" y="-440" width="120" height="80" as="geometry" />
        </mxCell>
        <mxCell id="PGMovxBzatp9qkB7L8K9-19" value="" style="endArrow=block;html=1;rounded=0;endFill=0;exitX=0.5;exitY=0;exitDx=0;exitDy=0;entryX=0;entryY=0.631;entryDx=0;entryDy=0;entryPerimeter=0;" edge="1" parent="1" source="PGMovxBzatp9qkB7L8K9-12" target="PGMovxBzatp9qkB7L8K9-10">
          <mxGeometry width="50" height="50" relative="1" as="geometry">
            <mxPoint x="460" y="-544" as="sourcePoint" />
            <mxPoint x="347" y="-522" as="targetPoint" />
            <Array as="points" />
          </mxGeometry>
        </mxCell>
        <mxCell id="PGMovxBzatp9qkB7L8K9-20" value="" style="endArrow=block;html=1;rounded=0;endFill=0;exitX=0.5;exitY=0;exitDx=0;exitDy=0;entryX=0;entryY=1;entryDx=0;entryDy=0;" edge="1" parent="1" source="PGMovxBzatp9qkB7L8K9-13" target="PGMovxBzatp9qkB7L8K9-10">
          <mxGeometry width="50" height="50" relative="1" as="geometry">
            <mxPoint x="320" y="-430" as="sourcePoint" />
            <mxPoint x="363" y="-518" as="targetPoint" />
            <Array as="points" />
          </mxGeometry>
        </mxCell>
        <mxCell id="PGMovxBzatp9qkB7L8K9-21" value="&lt;font style=&quot;font-size: 13px;&quot;&gt;Filter by target&lt;/font&gt;" style="ellipse;whiteSpace=wrap;html=1;" vertex="1" parent="1">
          <mxGeometry x="580" y="-440" width="120" height="80" as="geometry" />
        </mxCell>
        <mxCell id="PGMovxBzatp9qkB7L8K9-22" value="&lt;font style=&quot;font-size: 13px;&quot;&gt;Filter by name prescription&lt;/font&gt;" style="ellipse;whiteSpace=wrap;html=1;" vertex="1" parent="1">
          <mxGeometry x="760" y="-440" width="120" height="80" as="geometry" />
        </mxCell>
        <mxCell id="PGMovxBzatp9qkB7L8K9-23" value="" style="endArrow=block;html=1;rounded=0;endFill=0;exitX=0.5;exitY=0;exitDx=0;exitDy=0;entryX=1;entryY=0.5;entryDx=0;entryDy=0;" edge="1" parent="1" target="PGMovxBzatp9qkB7L8K9-10">
          <mxGeometry width="50" height="50" relative="1" as="geometry">
            <mxPoint x="812" y="-440" as="sourcePoint" />
            <mxPoint x="780" y="-522" as="targetPoint" />
            <Array as="points" />
          </mxGeometry>
        </mxCell>
        <mxCell id="PGMovxBzatp9qkB7L8K9-24" value="" style="endArrow=block;html=1;rounded=0;endFill=0;exitX=0.5;exitY=0;exitDx=0;exitDy=0;entryX=1;entryY=1;entryDx=0;entryDy=0;" edge="1" parent="1" target="PGMovxBzatp9qkB7L8K9-10">
          <mxGeometry width="50" height="50" relative="1" as="geometry">
            <mxPoint x="642" y="-440" as="sourcePoint" />
            <mxPoint x="580" y="-510" as="targetPoint" />
            <Array as="points" />
          </mxGeometry>
        </mxCell>
      </root>
    </mxGraphModel>
  </diagram>
</mxfile>
